<?xml version="1.0" standalone="no"?>
<!DOCTYPE svg PUBLIC "-//W3C//DTD SVG 20010904//EN"
 "http://www.w3.org/TR/2001/REC-SVG-20010904/DTD/svg10.dtd">
<svg version="1.0" xmlns="http://www.w3.org/2000/svg"
 width="225.000000pt" height="225.000000pt" viewBox="0 0 225.000000 225.000000"
 preserveAspectRatio="xMidYMid meet">

<g transform="translate(0.000000,225.000000) scale(0.100000,-0.100000)"
fill="#000000" stroke="none">
<path d="M1070 2080 l0 -170 55 0 55 0 0 170 0 170 -55 0 -55 0 0 -170z"/>
<path d="M1438 2046 c-32 -77 -60 -149 -64 -158 -5 -14 4 -22 41 -38 26 -11
50 -20 55 -20 8 0 135 308 129 315 -2 2 -26 12 -54 23 l-50 20 -57 -142z"/>
<path d="M1755 1840 l-120 -120 43 -42 42 -43 120 120 120 120 -43 43 -43 42
-119 -120z"/>
<path d="M1985 1540 c-77 -33 -144 -61 -149 -63 -10 -3 21 -94 35 -103 5 -2
78 24 162 58 l154 63 -20 53 c-11 28 -25 52 -31 51 -6 0 -74 -27 -151 -59z"/>
<path d="M1910 1125 l0 -55 170 0 170 0 0 55 0 55 -170 0 -170 0 0 -55z"/>
<path d="M1857 848 c-33 -78 -42 -68 129 -137 86 -34 157 -61 158 -59 12 21
36 82 36 92 0 11 -146 76 -292 131 -13 5 -21 -2 -31 -27z"/>
<path d="M1675 570 l-39 -40 119 -120 119 -120 43 42 43 42 -117 118 c-65 65
-120 118 -123 118 -3 0 -24 -18 -45 -40z"/>
<path d="M1417 398 c-26 -11 -46 -26 -43 -32 2 -6 30 -74 61 -151 31 -77 59
-142 61 -144 3 -3 93 27 103 35 4 4 -123 314 -129 314 -3 -1 -27 -10 -53 -22z"/>
<path d="M1070 170 l0 -170 55 0 55 0 0 170 0 170 -55 0 -55 0 0 -170z"/>
</g>
</svg>
